<svg width="1044" height="1044" viewBox="0 0 1044 1044" fill="none" xmlns="http://www.w3.org/2000/svg">
<g filter="url(#filter0_d_222_157)">
<path d="M313.395 1027.52L310.246 1026.39V1018.99V1011.59L314.224 994.025L318.203 976.458L326.992 951.998L335.781 927.536L344.489 911.03L353.198 894.523L368.664 871.77L384.13 849.018L394.131 836.721L404.132 824.424L420.805 809.127L437.477 793.83L472.749 764.604L508.021 735.378L536.717 710.591L565.414 685.804L587.21 663.446L609.006 641.088L621.653 625.437L634.3 609.786L646.985 589.664L659.671 569.542L669.949 546.066L680.227 522.59L687.857 496.878L695.488 471.166L699.649 451.06L703.811 430.953L702.73 382.868L701.65 334.782L694.583 309.249L687.516 283.716L692.098 280.743L696.681 277.769H706.398H716.114L721.999 283.404L727.884 289.039L731.876 303.141L735.867 317.244L739.717 338.31L743.567 359.376L743.577 393.25L743.587 427.124L738.682 452.498L733.777 477.874L722.384 511.709L710.991 545.545L695.948 575.049L680.905 604.553L671.157 616.113L661.409 627.673L650.328 641.088L639.247 654.502L628.164 666.799L617.08 679.096L612.909 683.568L608.738 688.039L597.024 701.454L585.311 714.869L570.6 727.429L555.89 739.99L531.955 756.793L508.021 773.597L470.184 807.953L432.348 842.31L425.938 851.254L419.529 860.197L410.393 872.494L401.256 884.791L398.518 891.231L395.781 897.672L391.147 903.528L386.514 909.384L375.128 932.86L363.742 956.336L361.857 961.818L359.973 967.299L348.966 987.367L337.96 1007.44V1010.32V1013.2L333.714 1021.1L329.468 1029L323.006 1028.82L316.544 1028.65L313.395 1027.52ZM133.764 961.114L119.784 958.442L104.79 951.842L89.796 945.242L71.9534 929.549L54.1107 913.856L43.8116 895.509L33.5124 877.162L30.5248 864.391L27.5371 851.619L28.5517 837.486L29.5662 823.354L34.7318 817.213L39.8976 811.074L49.1478 809.132L58.3981 807.191L64.2908 808.503L70.1838 809.815L71.5879 833.887L72.9921 857.96L78.0943 870.777L83.1967 883.596L90.8516 893.469L98.5064 903.343L110.888 911.408L123.269 919.474L133.933 922.813L144.597 926.151H165.454H186.311L204.303 920.75L222.296 915.348L231.035 909.433L239.773 903.518L249.542 891.918L259.311 880.318L276.827 845.236L294.343 810.155L307.963 790.743L321.583 771.331L340.479 753.34L359.374 735.348L393.387 708.596L427.399 681.844L453.453 658.111L479.506 634.379L490.158 622.082L500.81 609.785L517.351 588.443L533.892 567.101L545.337 548.198L556.782 529.296L566.065 509.256L575.348 489.216L581.398 468.052L587.447 446.888L591.307 420.558L595.168 394.228L592.515 367.121L589.863 340.013L586.12 323.982L582.377 307.951L576.25 288.947L570.123 269.942L560.131 248.353L550.138 226.763L533.03 203.737L515.922 180.712L498.115 164.853L480.307 148.994L453.853 133.314L427.399 117.634L409.763 110.799L392.127 103.964L375.751 100.396L359.374 96.8284L336.36 94.8221L313.346 92.8161L289.588 94.5951L265.83 96.3739L258.435 97.8375L251.039 99.3011L238.442 102.761L225.845 106.221L205.251 114.677L184.657 123.133L164.94 134.911L145.223 146.69L123.787 165.836L102.35 184.983L90.1608 203.486L77.9721 221.988L69.3701 243.993L60.7681 265.999L56.7384 291.447L52.7087 316.895L53.9977 342.607L55.2866 368.319L63.0937 390.393L70.9007 412.467V420.286V428.105L55.7816 427.134L40.6624 426.163L33.3981 419.987L26.1338 413.811L20.9787 399.875L15.8237 385.94L12.9119 358.124L10 330.309L11.6328 311.305L13.2655 292.3L19.3094 269.569L25.3532 246.837L34.1229 227.537L42.8927 208.237L51.9624 193.844L61.0323 179.451L75.7406 163.212L90.449 146.973L102.72 136.611L114.991 126.248L133.705 113.565L152.42 100.881L185.353 86.4111L218.287 71.9414L243.481 66.3196L268.676 60.6981L287.12 58.595L305.564 56.4924L334.999 58.6262L364.434 60.7605L389.057 66.3037L413.68 71.8466L437.133 81.7058L460.586 91.5647L480.429 103.447L500.271 115.33L523.042 135.623L545.812 155.916L561.44 176.264L577.067 196.611L585.773 212.036L594.478 227.462L603.308 246.466L612.138 265.47L617.292 280.003L622.446 294.536L626.47 313.54L630.494 332.545L632.534 361.332L634.574 390.119L632.615 414.991L630.655 439.863L623.082 467.846L615.508 495.829L606.45 514.798L597.391 533.767L588.25 549.418L579.11 565.069L567.549 581.837L555.989 598.606L548.381 607.801L540.774 616.997L536.436 623.452L532.098 629.907L523.074 641.086L514.05 652.265L489.995 675.257L465.94 698.249L436.592 720.332L407.244 742.414L392.918 754.353L378.593 766.291L364.448 780.673L350.304 795.055L338.696 809.739L327.088 824.422L318.353 841.191L309.617 857.96L302.285 873.55L294.952 889.141L290.351 893.672L285.751 898.204L277.397 912.336L269.043 926.469L257.522 935.489L246.001 944.509L231.54 951.001L217.079 957.494L201.307 960.794L185.535 964.094L166.639 963.94L147.743 963.785L133.764 961.114ZM741.068 852.107L717.133 847.689L704.536 841.897L691.939 836.105L677.78 826.445L663.622 816.785L651.669 804.987L639.717 793.19L632.507 781.987L625.298 770.785L623.695 761.301L622.093 751.817L623.613 746.445L625.132 741.074L628.914 739.786L632.695 738.498L662.318 751.637L691.94 764.776L742.329 787.305L792.717 809.835L800.757 809.865L808.796 809.895L810.639 807.25L812.481 804.604L802.353 796.63L792.225 788.655L766.017 775.763L739.809 762.871L705.797 748.223L671.785 733.576L655.409 726.343L639.032 719.11L638.266 714.455L637.498 709.8L644.331 705.03L651.164 700.261L665.033 696.683L678.902 693.105L701.797 693.196L724.693 693.287L744.622 697.935L764.552 702.583L777.375 707.848L790.198 713.113L805.597 723.456L820.995 733.799L834.13 750.661L847.265 767.522L856.906 785.917L866.546 804.312L870.573 815.01L874.599 825.709V830.723V835.736L870.69 840.688L866.782 845.64L861.598 848.102L856.414 850.564L834.643 853.701L812.873 856.837L788.938 856.685L765.004 856.534L741.068 852.107ZM134.553 752.866L121.362 749.632L108.886 744.022L96.4099 738.411L87.5094 730.278L78.6088 722.145L73.002 711.867L67.395 701.589L67.5752 680.281L67.7554 658.974L71.7455 649.447L75.7354 639.92L83.6398 629.725L91.5441 619.529L115.412 595.653L139.281 571.777L145.682 562.213L152.083 552.649L151.102 537.262L150.122 521.874L134.366 494.284L118.61 466.694L116.321 443.199L114.032 419.704L106.952 400.719L99.8728 381.733L100.09 348.196L100.308 314.659L105.845 297.032L111.382 279.405L118.903 263.718L126.426 248.032L137.417 234.363L148.409 220.693L159.987 211.222L171.565 201.751H177.802H184.038L190.644 204.422L197.25 207.093L200.537 212.806L203.824 218.52L201.917 223.003L200.01 227.487L188.934 238.654L177.859 249.821L171.383 257.646L164.907 265.471L155.974 283.358L147.041 301.245L143.613 310.188L140.185 319.131L140.299 357.14L140.412 395.148L144.808 410.799L149.203 426.45L166.606 457.751L184.009 489.052L186.939 506.939L189.87 524.825L188.287 537.122L186.704 549.419L181.399 563.952L176.094 578.485L169.484 586.273L162.874 594.062L156.393 603.042L149.912 612.022L142.536 618.95L135.161 625.879L126.501 635.508L117.841 645.137L113.274 653.087L108.707 661.037V672.989V684.941L111.467 694.668L114.227 704.396L121.843 711.309L129.46 718.222H135.749H142.038L161.274 701.801L180.51 685.38L192.899 677.96L205.289 670.54L224.392 663.402L243.496 656.264L272.469 647.906L301.443 639.548L318.897 632.981L336.352 626.415L353.167 614.359L369.981 602.302L379.319 589.819L388.656 577.335L394.546 565.516L400.436 553.697L405.899 538.143L411.362 522.589L411.591 503.585L411.82 484.581L408.661 474.579L405.502 464.577L397.646 449.985L389.79 435.393L372.064 419.684L354.338 403.975L337.968 397.009L321.598 390.043L309.001 386.007L296.404 381.972L268.69 381.911L240.977 381.865L224.805 388.135L208.634 394.405L203.159 392.191L197.685 389.977L193.402 381.969L189.12 373.96L191.73 369.632L194.341 365.303L208.841 357.586L223.341 349.869L233.418 346.843L243.496 343.816L267.431 344.041L291.365 344.265L311.521 348.996L331.676 353.727L351.868 362.843L372.06 371.959L388.358 383.63L404.657 395.301L416.035 407.852L427.414 420.403L435.572 434.606L443.729 448.808L448.799 466.493L453.868 484.179L453.883 503.384L453.897 522.59L445.983 546.668L438.07 570.747L425.184 588.301L412.298 605.855L401.836 618.05L391.374 630.245L379.161 639.281L366.948 648.317L353.091 656.069L339.234 663.821L317.819 671.77L296.404 679.719L272.469 686.895L248.535 694.07L230.914 702.234L213.294 710.398L187.79 732.193L162.287 753.989L155.022 755.045L147.758 756.101L134.553 752.866ZM836.602 622.605L820.021 618.614L805.325 610.846L790.63 603.078L780.965 595.04L771.301 587.002V580.191V573.38L781.434 569.783L791.567 566.184L803.362 563.839L815.157 561.493L861.883 556.975L908.61 552.456L937.117 551.178L965.624 549.899L970.835 546.155L976.045 542.411L973.102 537.53L970.158 532.649L923.008 532.694L875.857 532.74L850.663 536.002L825.469 539.264L795.235 544.566L765.002 549.869L764.204 543.396L763.405 536.923L768.881 526.884L774.357 516.845L786.623 504.935L798.889 493.026L815.957 485.11L833.026 477.194L846.71 473.624L860.394 470.055L888.281 470.086L916.167 470.116L929.44 473.252L942.713 476.387L959.673 483.429L976.633 490.471L1001.35 505.073L1026.07 519.676L1030.04 527.053L1034 534.429L1032.28 540.526L1030.55 546.622L1003.92 570.857L977.288 595.093L961.844 603.983L946.4 612.873L926.245 618.874L906.089 624.875L879.635 625.743L853.181 626.611L836.602 622.605ZM830.508 393.153L820.43 390.34L814.761 387.635L809.092 384.93V380.955V376.98L816.021 371.43L822.949 365.879L841.845 353.51L860.741 341.142L885.789 324.547L910.837 307.952L933.582 294.537L956.327 281.122L963.133 272.179L969.939 263.236L971.676 257.901L973.412 252.566L966.205 254.143L958.998 255.721L952.283 259.478L945.568 263.236L930.041 272.179L914.514 281.122L882.588 301.035L850.663 320.949L831.635 333.778L812.607 346.607L804.222 351.132L795.837 355.657L792.436 354.5L789.035 353.342L786.661 345.712L784.287 338.081L786.64 323.335L788.994 308.588L796.866 292.62L804.739 276.652L811.682 267.657L818.625 258.663L829.984 249.371L841.344 240.079L852.254 235.14L863.163 230.2L880.365 225.008L897.567 219.816L918.205 217.288L938.843 214.76L962.777 216.163L986.712 217.566L1000.17 218.885L1013.63 220.205L1020.04 225.099L1026.45 229.993L1026.4 238.79L1026.35 247.586L1019.76 267.709L1013.17 287.831L1007.73 300.128L1002.3 312.425L995.766 320.213L989.23 328.002L982.704 336.982L976.178 345.962L961.289 359.564L946.4 373.167L927.504 381.423L908.608 389.678L894.751 392.946L880.895 396.214L860.739 396.093L840.584 395.972L830.508 393.153ZM673.831 228.022L657.419 214.048L651.563 205.105L645.706 196.162L639.907 180.511L634.109 164.86L634.469 140.266L634.829 115.672L639.907 98.5829L644.986 81.4936L652.587 68.1312L660.188 54.7686L674.984 38.2686L689.781 21.7686L698.715 13.3842L707.65 5H717.536H727.421L737.69 14.5022L747.96 24.0042L761.74 40.2797L775.52 56.5552L784.507 72.699L793.495 88.8427L797.515 104.935L801.534 121.027V135.207V149.388L797.796 162.123L794.058 174.857L786.399 189.848L778.74 204.838L768.757 216.571L758.775 228.305L750.151 234.142L741.526 239.98L734.368 240.428L727.211 240.877V159.27V77.663L724.124 71.5146L721.037 65.366H717.51H713.984L712.455 72.1481L710.925 78.9302L708.486 108.48L706.046 138.03L704.546 183.864L703.046 229.698L701.701 235.846L700.355 241.995H695.298H690.241L673.831 228.022Z" fill="#4C0264"/>
<path d="M445.691 359.777L452.588 363.098L459.485 366.416L465.279 366.507L471.073 366.598L478.262 363.298L485.452 359.999L490.734 352.414L496.017 344.83V337.613V330.397L491.718 323.94L487.42 317.482L478.759 313.835L470.097 310.188L460.568 312.721L451.038 315.255L444.554 322.094L438.07 328.932V337.815V346.698L441.881 353.237L445.691 359.777Z" fill="#4C0264"/>
<path d="M222.144 611.082L229.041 614.403L235.937 617.721L241.731 617.812L247.525 617.903L254.715 614.604L261.905 611.304L267.187 603.72L272.469 596.135V588.919V581.702L268.171 575.245L263.872 568.788L255.211 565.14L246.55 561.493L237.02 564.027L227.491 566.56L221.006 573.399L214.522 580.237V589.12V598.003L218.333 604.543L222.144 611.082Z" fill="#4C0264"/>
</g>
<defs>
<filter id="filter0_d_222_157" x="0" y="0" width="1044" height="1044" filterUnits="userSpaceOnUse" color-interpolation-filters="sRGB">
<feFlood flood-opacity="0" result="BackgroundImageFix"/>
<feColorMatrix in="SourceAlpha" type="matrix" values="0 0 0 0 0 0 0 0 0 0 0 0 0 0 0 0 0 0 127 0" result="hardAlpha"/>
<feOffset dy="5"/>
<feGaussianBlur stdDeviation="5"/>
<feComposite in2="hardAlpha" operator="out"/>
<feColorMatrix type="matrix" values="0 0 0 0 0 0 0 0 0 0 0 0 0 0 0 0 0 0 1 0"/>
<feBlend mode="normal" in2="BackgroundImageFix" result="effect1_dropShadow_222_157"/>
<feBlend mode="normal" in="SourceGraphic" in2="effect1_dropShadow_222_157" result="shape"/>
</filter>
</defs>
</svg>
