<svg width="1024" height="1024" viewBox="0 0 1024 1024" fill="none" xmlns="http://www.w3.org/2000/svg">
<path d="M303.395 1022.52L300.246 1021.39V1013.99V1006.59L304.224 989.025L308.203 971.458L316.992 946.998L325.781 922.536L334.489 906.03L343.198 889.523L358.664 866.77L374.13 844.018L384.131 831.721L394.132 819.424L410.805 804.127L427.477 788.83L462.749 759.604L498.021 730.378L526.717 705.591L555.414 680.804L577.21 658.446L599.006 636.088L611.653 620.437L624.3 604.786L636.985 584.664L649.671 564.542L659.949 541.066L670.227 517.59L677.857 491.878L685.488 466.166L689.649 446.06L693.811 425.953L692.73 377.868L691.65 329.782L684.583 304.249L677.516 278.716L682.098 275.743L686.681 272.769H696.398H706.114L711.999 278.404L717.884 284.039L721.876 298.141L725.867 312.244L729.717 333.31L733.567 354.376L733.577 388.25L733.587 422.124L728.682 447.498L723.777 472.874L712.384 506.709L700.991 540.545L685.948 570.049L670.905 599.553L661.157 611.113L651.409 622.673L640.328 636.088L629.247 649.502L618.164 661.799L607.08 674.096L602.909 678.568L598.738 683.039L587.024 696.454L575.311 709.869L560.6 722.429L545.89 734.99L521.955 751.793L498.021 768.597L460.184 802.953L422.348 837.31L415.938 846.254L409.529 855.197L400.393 867.494L391.256 879.791L388.518 886.231L385.781 892.672L381.147 898.528L376.514 904.384L365.128 927.86L353.742 951.336L351.857 956.818L349.973 962.299L338.966 982.367L327.96 1002.44V1005.32V1008.2L323.714 1016.1L319.468 1024L313.006 1023.82L306.544 1023.65L303.395 1022.52ZM123.764 956.114L109.784 953.442L94.79 946.842L79.796 940.242L61.9534 924.549L44.1107 908.856L33.8116 890.509L23.5124 872.162L20.5248 859.391L17.5371 846.619L18.5517 832.486L19.5662 818.354L24.7318 812.213L29.8976 806.074L39.1478 804.132L48.3981 802.191L54.2908 803.503L60.1838 804.815L61.5879 828.887L62.9921 852.96L68.0943 865.777L73.1967 878.596L80.8516 888.469L88.5064 898.343L100.888 906.408L113.269 914.474L123.933 917.813L134.597 921.151H155.454H176.311L194.303 915.75L212.296 910.348L221.035 904.433L229.773 898.518L239.542 886.918L249.311 875.318L266.827 840.236L284.343 805.155L297.963 785.743L311.583 766.331L330.479 748.34L349.374 730.348L383.387 703.596L417.399 676.844L443.453 653.111L469.506 629.379L480.158 617.082L490.81 604.785L507.351 583.443L523.892 562.101L535.337 543.198L546.782 524.296L556.065 504.256L565.348 484.216L571.398 463.052L577.447 441.888L581.307 415.558L585.168 389.228L582.515 362.121L579.863 335.013L576.12 318.982L572.377 302.951L566.25 283.947L560.123 264.942L550.131 243.353L540.138 221.763L523.03 198.737L505.922 175.712L488.115 159.853L470.307 143.994L443.853 128.314L417.399 112.634L399.763 105.799L382.127 98.9642L365.751 95.3963L349.374 91.8284L326.36 89.8221L303.346 87.8161L279.588 89.5951L255.83 91.3739L248.435 92.8375L241.039 94.3011L228.442 97.7611L215.845 101.221L195.251 109.677L174.657 118.133L154.94 129.911L135.223 141.69L113.787 160.836L92.3496 179.983L80.1608 198.486L67.9721 216.988L59.3701 238.993L50.7681 260.999L46.7384 286.447L42.7087 311.895L43.9977 337.607L45.2866 363.319L53.0937 385.393L60.9007 407.467V415.286V423.105L45.7816 422.134L30.6624 421.163L23.3981 414.987L16.1338 408.811L10.9787 394.875L5.82374 380.94L2.91187 353.124L0 325.309L1.63279 306.305L3.26545 287.3L9.30939 264.569L15.3532 241.837L24.1229 222.537L32.8927 203.237L41.9624 188.844L51.0323 174.451L65.7406 158.212L80.449 141.973L92.7198 131.611L104.991 121.248L123.705 108.565L142.42 95.8806L175.353 81.4111L208.287 66.9414L233.481 61.3196L258.676 55.6981L277.12 53.595L295.564 51.4924L324.999 53.6262L354.434 55.7605L379.057 61.3037L403.68 66.8466L427.133 76.7058L450.586 86.5647L470.429 98.4472L490.271 110.33L513.042 130.623L535.812 150.916L551.44 171.264L567.067 191.611L575.773 207.036L584.478 222.462L593.308 241.466L602.138 260.47L607.292 275.003L612.446 289.536L616.47 308.54L620.494 327.545L622.534 356.332L624.574 385.119L622.615 409.991L620.655 434.863L613.082 462.846L605.508 490.829L596.45 509.798L587.391 528.767L578.25 544.418L569.11 560.069L557.549 576.837L545.989 593.606L538.381 602.801L530.774 611.997L526.436 618.452L522.098 624.907L513.074 636.086L504.05 647.265L479.995 670.257L455.94 693.249L426.592 715.332L397.244 737.414L382.918 749.353L368.593 761.291L354.448 775.673L340.304 790.055L328.696 804.739L317.088 819.422L308.353 836.191L299.617 852.96L292.285 868.55L284.952 884.141L280.351 888.672L275.751 893.204L267.397 907.336L259.043 921.469L247.522 930.489L236.001 939.509L221.54 946.001L207.079 952.494L191.307 955.794L175.535 959.094L156.639 958.94L137.743 958.785L123.764 956.114ZM731.068 847.107L707.133 842.689L694.536 836.897L681.939 831.105L667.78 821.445L653.622 811.785L641.669 799.987L629.717 788.19L622.507 776.987L615.298 765.785L613.695 756.301L612.093 746.817L613.613 741.445L615.132 736.074L618.914 734.786L622.695 733.498L652.318 746.637L681.94 759.776L732.329 782.305L782.717 804.835L790.757 804.865L798.796 804.895L800.639 802.25L802.481 799.604L792.353 791.63L782.225 783.655L756.017 770.763L729.809 757.871L695.797 743.223L661.785 728.576L645.409 721.343L629.032 714.11L628.266 709.455L627.498 704.8L634.331 700.03L641.164 695.261L655.033 691.683L668.902 688.105L691.797 688.196L714.693 688.287L734.622 692.935L754.552 697.583L767.375 702.848L780.198 708.113L795.597 718.456L810.995 728.799L824.13 745.661L837.265 762.522L846.906 780.917L856.546 799.312L860.573 810.01L864.599 820.709V825.723V830.736L860.69 835.688L856.782 840.64L851.598 843.102L846.414 845.564L824.643 848.701L802.873 851.837L778.938 851.685L755.004 851.534L731.068 847.107ZM124.553 747.866L111.362 744.632L98.8862 739.022L86.4099 733.411L77.5094 725.278L68.6088 717.145L63.002 706.867L57.395 696.589L57.5752 675.281L57.7554 653.974L61.7455 644.447L65.7354 634.92L73.6398 624.725L81.5441 614.529L105.412 590.653L129.281 566.777L135.682 557.213L142.083 547.649L141.102 532.262L140.122 516.874L124.366 489.284L108.61 461.694L106.321 438.199L104.032 414.704L96.9522 395.719L89.8728 376.733L90.0903 343.196L90.3077 309.659L95.8446 292.032L101.382 274.405L108.903 258.718L116.426 243.032L127.417 229.363L138.409 215.693L149.987 206.222L161.565 196.751H167.802H174.038L180.644 199.422L187.25 202.093L190.537 207.806L193.824 213.52L191.917 218.003L190.01 222.487L178.934 233.654L167.859 244.821L161.383 252.646L154.907 260.471L145.974 278.358L137.041 296.245L133.613 305.188L130.185 314.131L130.299 352.14L130.412 390.148L134.808 405.799L139.203 421.45L156.606 452.751L174.009 484.052L176.939 501.939L179.87 519.825L178.287 532.122L176.704 544.419L171.399 558.952L166.094 573.485L159.484 581.273L152.874 589.062L146.393 598.042L139.912 607.022L132.536 613.95L125.161 620.879L116.501 630.508L107.841 640.137L103.274 648.087L98.7066 656.037V667.989V679.941L101.467 689.668L104.227 699.396L111.843 706.309L119.46 713.222H125.749H132.038L151.274 696.801L170.51 680.38L182.899 672.96L195.289 665.54L214.392 658.402L233.496 651.264L262.469 642.906L291.443 634.548L308.897 627.981L326.352 621.415L343.167 609.359L359.981 597.302L369.319 584.819L378.656 572.335L384.546 560.516L390.436 548.697L395.899 533.143L401.362 517.589L401.591 498.585L401.82 479.581L398.661 469.579L395.502 459.577L387.646 444.985L379.79 430.393L362.064 414.684L344.338 398.975L327.968 392.009L311.598 385.043L299.001 381.007L286.404 376.972L258.69 376.911L230.977 376.865L214.805 383.135L198.634 389.405L193.159 387.191L187.685 384.977L183.402 376.969L179.12 368.96L181.73 364.632L184.341 360.303L198.841 352.586L213.341 344.869L223.418 341.843L233.496 338.816L257.431 339.041L281.365 339.265L301.521 343.996L321.676 348.727L341.868 357.843L362.06 366.959L378.358 378.63L394.657 390.301L406.035 402.852L417.414 415.403L425.572 429.606L433.729 443.808L438.799 461.493L443.868 479.179L443.883 498.384L443.897 517.59L435.983 541.668L428.07 565.747L415.184 583.301L402.298 600.855L391.836 613.05L381.374 625.245L369.161 634.281L356.948 643.317L343.091 651.069L329.234 658.821L307.819 666.77L286.404 674.719L262.469 681.895L238.535 689.07L220.914 697.234L203.294 705.398L177.79 727.193L152.287 748.989L145.022 750.045L137.758 751.101L124.553 747.866ZM826.602 617.605L810.021 613.614L795.325 605.846L780.63 598.078L770.965 590.04L761.301 582.002V575.191V568.38L771.434 564.783L781.567 561.184L793.362 558.839L805.157 556.493L851.883 551.975L898.61 547.456L927.117 546.178L955.624 544.899L960.835 541.155L966.045 537.411L963.102 532.53L960.158 527.649L913.008 527.694L865.857 527.74L840.663 531.002L815.469 534.264L785.235 539.566L755.002 544.869L754.204 538.396L753.405 531.923L758.881 521.884L764.357 511.845L776.623 499.935L788.889 488.026L805.957 480.11L823.026 472.194L836.71 468.624L850.394 465.055L878.281 465.086L906.167 465.116L919.44 468.252L932.713 471.387L949.673 478.429L966.633 485.471L991.353 500.073L1016.07 514.676L1020.04 522.053L1024 529.429L1022.28 535.526L1020.55 541.622L993.92 565.857L967.288 590.093L951.844 598.983L936.4 607.873L916.245 613.874L896.089 619.875L869.635 620.743L843.181 621.611L826.602 617.605ZM820.508 388.153L810.43 385.34L804.761 382.635L799.092 379.93V375.955V371.98L806.021 366.43L812.949 360.879L831.845 348.51L850.741 336.142L875.789 319.547L900.837 302.952L923.582 289.537L946.327 276.122L953.133 267.179L959.939 258.236L961.676 252.901L963.412 247.566L956.205 249.143L948.998 250.721L942.283 254.478L935.568 258.236L920.041 267.179L904.514 276.122L872.588 296.035L840.663 315.949L821.635 328.778L802.607 341.607L794.222 346.132L785.837 350.657L782.436 349.5L779.035 348.342L776.661 340.712L774.287 333.081L776.64 318.335L778.994 303.588L786.866 287.62L794.739 271.652L801.682 262.657L808.625 253.663L819.984 244.371L831.344 235.079L842.254 230.14L853.163 225.2L870.365 220.008L887.567 214.816L908.205 212.288L928.843 209.76L952.777 211.163L976.712 212.566L990.169 213.885L1003.63 215.205L1010.04 220.099L1016.45 224.993L1016.4 233.79L1016.35 242.586L1009.76 262.709L1003.17 282.831L997.735 295.128L992.301 307.425L985.766 315.213L979.23 323.002L972.704 331.982L966.178 340.962L951.289 354.564L936.4 368.167L917.504 376.423L898.608 384.678L884.751 387.946L870.895 391.214L850.739 391.093L830.584 390.972L820.508 388.153ZM663.831 223.022L647.419 209.048L641.563 200.105L635.706 191.162L629.907 175.511L624.109 159.86L624.469 135.266L624.829 110.672L629.907 93.5829L634.986 76.4936L642.587 63.1312L650.188 49.7686L664.984 33.2686L679.781 16.7686L688.715 8.3842L697.65 0H707.536H717.421L727.69 9.50222L737.96 19.0042L751.74 35.2797L765.52 51.5552L774.507 67.699L783.495 83.8427L787.515 99.9347L791.534 116.027V130.207V144.388L787.796 157.123L784.058 169.857L776.399 184.848L768.74 199.838L758.757 211.571L748.775 223.305L740.151 229.142L731.526 234.98L724.368 235.428L717.211 235.877V154.27V72.663L714.124 66.5146L711.037 60.366H707.51H703.984L702.455 67.1481L700.925 73.9302L698.486 103.48L696.046 133.03L694.546 178.864L693.046 224.698L691.701 230.846L690.355 236.995H685.298H680.241L663.831 223.022Z" fill="#2B0356" fill-opacity="0.666667"/>
<path d="M435.691 354.777L442.588 358.098L449.485 361.416L455.279 361.507L461.073 361.598L468.262 358.298L475.452 354.999L480.734 347.414L486.017 339.83V332.613V325.397L481.718 318.94L477.42 312.482L468.759 308.835L460.097 305.188L450.568 307.721L441.038 310.255L434.554 317.094L428.07 323.932V332.815V341.698L431.881 348.237L435.691 354.777Z" fill="#2B0356" fill-opacity="0.666667"/>
<path d="M212.144 606.082L219.041 609.403L225.937 612.721L231.731 612.812L237.525 612.903L244.715 609.604L251.905 606.304L257.187 598.72L262.469 591.135V583.919V576.702L258.171 570.245L253.872 563.788L245.211 560.14L236.55 556.493L227.02 559.027L217.491 561.56L211.006 568.399L204.522 575.237V584.12V593.003L208.333 599.543L212.144 606.082Z" fill="#2B0356" fill-opacity="0.666667"/>
</svg>
